<svg width="29" height="29" viewBox="0 0 29 29" fill="none" xmlns="http://www.w3.org/2000/svg">
<path d="M18.5283 4.53125H10.4708C8.89591 4.53245 7.38586 5.15861 6.27223 6.27223C5.15861 7.38586 4.53245 8.89591 4.53125 10.4708V18.5283C4.53221 20.1033 5.15826 21.6136 6.27191 22.7274C7.38556 23.8413 8.89575 24.4676 10.4708 24.4688H18.5283C20.1033 24.4673 21.6133 23.841 22.7269 22.7272C23.8405 21.6134 24.4666 20.1033 24.4678 18.5283V10.4708C24.4671 8.89576 23.8411 7.38543 22.7274 6.2717C21.6137 5.15798 20.1033 4.53197 18.5283 4.53125ZM22.4632 18.5283C22.463 19.5718 22.0483 20.5725 21.3104 21.3104C20.5725 22.0483 19.5718 22.463 18.5283 22.4632H10.4708C9.95411 22.4632 9.44247 22.3614 8.96511 22.1637C8.48776 21.9659 8.05403 21.6761 7.68871 21.3106C7.32339 20.9452 7.03363 20.5115 6.83598 20.034C6.63833 19.5566 6.53666 19.045 6.53678 18.5283V10.4708C6.53666 9.95415 6.63834 9.44253 6.836 8.96518C7.03366 8.48783 7.32343 8.0541 7.68877 7.68877C8.0541 7.32343 8.48783 7.03366 8.96518 6.836C9.44253 6.63834 9.95415 6.53666 10.4708 6.53678H18.5283C19.5716 6.53702 20.5721 6.95158 21.3098 7.6893C22.0475 8.42702 22.4621 9.42752 22.4623 10.4708L22.4632 18.5283Z" fill="black"/>
<path d="M14.5 9.34523C11.6562 9.34523 9.34528 11.6571 9.34528 14.5C9.34528 17.3429 11.6571 19.6547 14.5 19.6547C17.3429 19.6547 19.6548 17.3429 19.6548 14.5C19.6548 11.6571 17.3438 9.34523 14.5 9.34523ZM14.5 17.6492C13.6648 17.6493 12.8637 17.3176 12.2731 16.7271C11.6824 16.1366 11.3505 15.3357 11.3504 14.5004C11.3502 13.6652 11.6819 12.8641 12.2724 12.2735C12.8629 11.6828 13.6639 11.3509 14.4991 11.3508C15.3343 11.3506 16.1354 11.6823 16.7261 12.2728C17.3168 12.8633 17.6487 13.6643 17.6488 14.4995C17.6489 15.3347 17.3172 16.1358 16.7267 16.7265C16.1362 17.3172 15.3353 17.6491 14.5 17.6492ZM19.6657 8.14807C19.9099 8.14825 20.1486 8.22082 20.3516 8.35662C20.5546 8.49242 20.7127 8.68534 20.8061 8.91101C20.8995 9.13668 20.9239 9.38497 20.8762 9.62449C20.8285 9.86402 20.7109 10.084 20.5382 10.2567C20.3655 10.4294 20.1455 10.547 19.9059 10.5947C19.6664 10.6424 19.4181 10.618 19.1925 10.5247C18.9668 10.4313 18.7739 10.2731 18.6381 10.0701C18.5023 9.86711 18.4297 9.62842 18.4295 9.3842C18.4295 8.7027 18.8917 8.14807 19.6657 8.14807Z" fill="black"/>
</svg>
