<svg width="19" height="19" viewBox="0 0 19 19" fill="none" xmlns="http://www.w3.org/2000/svg">
<path d="M18.9914 2.00413C19.0282 1.78265 18.9452 1.5582 18.773 1.41416C18.6007 1.27013 18.3651 1.22805 18.1536 1.30357L0.420326 7.6369C0.181398 7.72223 0.0164498 7.94192 0.00115736 8.19516C-0.014135 8.44841 0.123179 8.68635 0.350104 8.79981L5.41677 11.3331C5.62005 11.4348 5.86221 11.4197 6.05131 11.2936L10.2571 8.48975L7.73879 11.6377C7.6279 11.7763 7.58026 11.9551 7.6075 12.1305C7.63473 12.3059 7.73433 12.4618 7.88202 12.5603L15.4821 17.6269C15.6608 17.7461 15.8879 17.7665 16.0851 17.6811C16.2824 17.5958 16.4227 17.4162 16.4581 17.2041L18.9914 2.00413Z" fill="black"/>
</svg>
